<svg width="35" height="35" viewBox="0 0 35 35" fill="none" xmlns="http://www.w3.org/2000/svg">
    <circle cx="17.5" cy="17.5" r="17" fill="#D0C4C4" stroke="#292D32"/>
    <path d="M20.81 25.18C20.55 25.18 20.28 25.17 19.99 25.14C19.47 25.1 18.88 25 18.27 24.85L16.59 24.45C11.98 23.36 10.47 20.92 11.55 16.32L12.53 12.13C12.75 11.18 13.01 10.41 13.33 9.77C15.05 6.22 18.34 6.54 20.68 7.09L22.35 7.48C24.69 8.03 26.17 8.9 27 10.23C27.82 11.56 27.95 13.27 27.4 15.61L26.42 19.79C25.56 23.45 23.77 25.18 20.81 25.18ZM18.12 8.25C16.45 8.25 15.39 8.94 14.68 10.42C14.42 10.96 14.19 11.63 13.99 12.47L13.01 16.66C12.12 20.44 13.15 22.09 16.93 22.99L18.61 23.39C19.15 23.52 19.66 23.6 20.12 23.64C22.84 23.91 24.19 22.72 24.95 19.45L25.93 15.27C26.38 13.34 26.32 11.99 25.72 11.02C25.12 10.05 23.94 9.39 22 8.94L20.33 8.55C19.5 8.35 18.76 8.25 18.12 8.25Z" fill="#292D32"/>
    <path d="M13.33 27.25C10.76 27.25 9.12 25.71 8.07 22.46L6.79 18.51C5.37 14.11 6.64 11.63 11.02 10.21L12.6 9.7C13.12 9.54 13.51 9.43 13.86 9.37C14.15 9.31 14.43 9.42 14.6 9.65C14.77 9.88 14.8 10.18 14.68 10.44C14.42 10.97 14.19 11.64 14 12.48L13.02 16.67C12.13 20.45 13.16 22.1 16.94 23L18.62 23.4C19.16 23.53 19.67 23.61 20.13 23.65C20.45 23.68 20.71 23.9 20.8 24.21C20.88 24.52 20.76 24.84 20.5 25.02C19.84 25.47 19.01 25.85 17.96 26.19L16.38 26.71C15.23 27.07 14.23 27.25 13.33 27.25ZM12.78 11.22L11.49 11.64C7.92 12.79 7.07 14.47 8.22 18.05L9.5 22C10.66 25.57 12.34 26.43 15.91 25.28L17.49 24.76C17.55 24.74 17.6 24.72 17.66 24.7L16.6 24.45C11.99 23.36 10.48 20.92 11.56 16.32L12.54 12.13C12.61 11.81 12.69 11.5 12.78 11.22Z" fill="#292D32"/>
    <path d="M22.49 15.51C22.43 15.51 22.37 15.5 22.3 15.49L17.45 14.26C17.05 14.16 16.81 13.75 16.91 13.35C17.01 12.95 17.42 12.71 17.82 12.81L22.67 14.04C23.07 14.14 23.31 14.55 23.21 14.95C23.13 15.28 22.82 15.51 22.49 15.51Z" fill="#292D32"/>
    <path d="M19.56 18.89C19.5 18.89 19.44 18.88 19.37 18.87L16.46 18.13C16.06 18.03 15.82 17.62 15.92 17.22C16.02 16.82 16.43 16.58 16.83 16.68L19.74 17.42C20.14 17.52 20.38 17.93 20.28 18.33C20.2 18.67 19.9 18.89 19.56 18.89Z" fill="#292D32"/>
</svg>
